# xmcd
#
# Track frame offsets: 
#        150
#        13566
#        28452
#        40677
#        51265
#        69070
#        81274
#        92691
#        108538
#        125117
#
# Disc length: 1840 seconds
#
# Revision: 0
# Processed by: cddbd v1.5.2PL0 Copyright (c) Steve Scherf et al.
# Submitted via: ExactAudioCopy v1.0b3
#
DISCID=81072e0a
DTITLE=Lou DeAdder - Acoustic Pathways
DYEAR=2014
DGENRE=Blues
TTITLE0=Fisherman's March
TTITLE1=Sally Ann Goes to the Mall
TTITLE2=The Charleston Jive
TTITLE3=Finger Food
TTITLE4=Willow Weeping
TTITLE5=Bluesy Thang, Pt.2
TTITLE6=Fast Ball
TTITLE7=Remember When
TTITLE8=Tyler Reads a Book
TTITLE9=Ride the White Stallion
EXTD=
EXTT0=
EXTT1=
EXTT2=
EXTT3=
EXTT4=
EXTT5=
EXTT6=
EXTT7=
EXTT8=
EXTT9=
PLAYORDER=
